<?xml version="1.0" standalone="no"?>
<!DOCTYPE svg PUBLIC "-//W3C//DTD SVG 20010904//EN"
 "http://www.w3.org/TR/2001/REC-SVG-20010904/DTD/svg10.dtd">
<svg version="1.0" xmlns="http://www.w3.org/2000/svg"
 width="225.000000pt" height="225.000000pt" viewBox="0 0 225.000000 225.000000"
 preserveAspectRatio="xMidYMid meet">

<g transform="translate(0.000000,225.000000) scale(0.100000,-0.100000)"
fill="#000000" stroke="none">
<path d="M1259 1548 c-96 -84 -190 -166 -210 -183 -20 -16 -122 -106 -228
-199 -171 -150 -209 -190 -176 -186 8 0 153 122 271 226 267 237 529 460 544
462 51 8 191 -133 241 -243 36 -80 41 -108 25 -130 -13 -18 -15 -17 -58 8
-106 62 -246 267 -183 267 10 0 15 -10 15 -33 0 -62 98 -181 144 -175 55 8 17
106 -73 191 -61 57 -94 61 -143 18 -18 -15 -200 -166 -404 -333 -262 -215
-369 -309 -364 -318 10 -16 5 -19 196 140 77 63 239 196 360 296 l222 183 31
-62 c38 -78 98 -147 161 -188 l49 -32 -52 -33 c-29 -19 -57 -34 -62 -34 -16 0
-110 100 -143 153 l-30 48 -76 -61 c-42 -34 -78 -66 -82 -71 -8 -13 79 -133
116 -159 36 -25 37 -31 9 -48 -20 -13 -25 -10 -66 30 -25 23 -58 62 -74 86
-31 43 -59 55 -59 24 0 -24 23 -57 88 -123 49 -51 52 -58 36 -67 -26 -14 -65
16 -121 92 -46 63 -65 74 -71 43 -4 -20 66 -116 107 -148 25 -20 26 -21 6 -35
-19 -14 -24 -11 -70 38 -28 29 -60 67 -72 83 -16 23 -25 27 -33 19 -19 -19 -3
-50 57 -114 46 -50 53 -63 43 -75 -10 -12 -17 -11 -46 11 -19 15 -50 48 -70
75 -37 50 -64 63 -64 30 0 -22 59 -101 97 -130 24 -17 26 -22 13 -31 -8 -5
-20 -10 -26 -10 -12 0 -90 80 -115 119 -17 26 -39 22 -39 -8 0 -10 25 -45 56
-79 52 -58 61 -82 29 -82 -16 0 -81 61 -112 105 -18 25 -23 27 -37 16 -14 -12
-12 -18 17 -58 17 -25 44 -55 59 -66 21 -16 25 -24 17 -34 -20 -23 -36 -15
-92 47 -55 62 -77 73 -77 42 0 -39 105 -132 150 -132 6 0 48 24 93 54 166 109
634 410 699 450 83 50 96 77 73 151 -22 74 -68 147 -140 224 -67 71 -114 101
-158 101 -17 0 -75 -45 -198 -152z m341 -73 c16 -22 31 -51 35 -64 l7 -24 -25
19 c-29 22 -87 103 -87 123 0 21 38 -8 70 -54z"/>
<path d="M895 1636 c-219 -63 -363 -220 -401 -438 -32 -182 28 -353 168 -483
71 -66 134 -100 236 -126 90 -23 143 -24 237 -4 108 23 189 68 272 150 81 80
97 116 66 147 -20 19 -20 19 -67 -34 -25 -29 -46 -47 -46 -41 0 7 4 14 10 18
17 11 51 65 41 65 -12 0 -80 -89 -81 -105 0 -5 5 -4 11 2 6 6 17 9 24 7 6 -3
29 16 49 41 21 25 42 45 48 45 6 0 -8 -19 -31 -42 -33 -35 -40 -48 -36 -69 7
-33 -7 -45 -69 -59 -27 -6 -63 -20 -80 -32 l-31 -21 21 23 c13 13 49 29 85 39
51 13 64 20 64 36 0 17 -6 19 -35 17 -19 -2 -54 -10 -78 -18 -23 -8 -58 -14
-76 -14 -20 0 -51 -12 -82 -33 -45 -30 -55 -32 -129 -31 -101 0 -166 28 -251
107 -121 112 -172 266 -141 418 22 110 60 184 131 254 130 129 319 184 484
141 70 -18 66 -3 -5 24 -75 28 -235 37 -308 16z"/>
<path d="M1321 820 c-12 -22 -18 -40 -13 -40 4 0 18 18 31 40 12 22 18 40 13
40 -4 0 -18 -18 -31 -40z"/>
</g>
</svg>
